<svg width="151" height="185" viewBox="0 0 151 185" fill="none" xmlns="http://www.w3.org/2000/svg">
<g filter="url(#filter0_ddi_17_38)">
<circle cx="76.1568" cy="76.7189" r="70.7189" fill="#1EB4E9"/>
</g>
<g filter="url(#filter1_i_17_38)">
<ellipse cx="76.1568" cy="76.2378" rx="63.9838" ry="64.4649" fill="#1889B1"/>
</g>
<path d="M92.4027 42.6807L84.2435 50.8545L102.583 69.1943L110.743 61.0352C113.951 57.8271 113.951 52.6416 110.743 49.4336L104.004 42.6807C100.796 39.4727 95.6107 39.4727 92.4027 42.6807ZM80.6253 53.8574L79.2777 54.2676L58.1693 60.5957C55.2542 61.4746 52.9398 63.7012 51.973 66.6016L38.9945 105.303C38.4378 106.958 38.848 108.804 40.0638 110.049L62.5638 87.5635C62.1244 86.6406 61.8753 85.6152 61.8753 84.5312C61.8753 80.6494 65.0248 77.5 68.9066 77.5C72.7884 77.5 75.9378 80.6494 75.9378 84.5312C75.9378 88.4131 72.7884 91.5625 68.9066 91.5625C67.8226 91.5625 66.7972 91.3135 65.8744 90.874L43.3744 113.374C44.6341 114.59 46.4652 115.015 48.1205 114.443L86.8363 101.465C89.722 100.498 91.9632 98.1836 92.8421 95.2686L99.1703 74.1602L99.5804 72.8125L80.6253 53.8574Z" fill="url(#paint0_linear_17_38)"/>
<rect x="26.6054" y="158.022" width="99.1027" height="25.9784" rx="10" fill="white"/>
<path d="M47.5629 176V165.695H51.8679C52.9879 165.695 53.9329 165.88 54.7029 166.25C55.4829 166.62 56.0729 167.185 56.4729 167.945C56.8829 168.695 57.0879 169.66 57.0879 170.84C57.0879 172.01 56.8829 172.98 56.4729 173.75C56.0729 174.51 55.4829 175.075 54.7029 175.445C53.9329 175.815 52.9879 176 51.8679 176H47.5629ZM50.2479 173.9H51.8379C52.2579 173.9 52.6229 173.84 52.9329 173.72C53.2429 173.6 53.5029 173.425 53.7129 173.195C53.9229 172.965 54.0779 172.68 54.1779 172.34C54.2779 172 54.3279 171.61 54.3279 171.17V170.54C54.3279 170.09 54.2779 169.695 54.1779 169.355C54.0779 169.015 53.9229 168.73 53.7129 168.5C53.5029 168.27 53.2429 168.095 52.9329 167.975C52.6229 167.855 52.2579 167.795 51.8379 167.795H50.2479V173.9ZM62.5611 176.18C61.6611 176.18 60.8961 176.035 60.2661 175.745C59.6361 175.445 59.1511 174.99 58.8111 174.38C58.4811 173.77 58.3161 172.99 58.3161 172.04C58.3161 171.11 58.4811 170.34 58.8111 169.73C59.1411 169.12 59.6161 168.665 60.2361 168.365C60.8561 168.065 61.6011 167.915 62.4711 167.915C63.3311 167.915 64.0561 168.06 64.6461 168.35C65.2461 168.64 65.7011 169.085 66.0111 169.685C66.3211 170.285 66.4761 171.06 66.4761 172.01V172.535H60.8061C60.8061 172.955 60.8661 173.31 60.9861 173.6C61.1061 173.89 61.2911 174.11 61.5411 174.26C61.7911 174.41 62.1261 174.485 62.5461 174.485C62.7961 174.485 63.0161 174.455 63.2061 174.395C63.3961 174.335 63.5561 174.25 63.6861 174.14C63.8161 174.02 63.9161 173.88 63.9861 173.72C64.0561 173.56 64.0911 173.38 64.0911 173.18H66.4761C66.4761 173.66 66.3861 174.09 66.2061 174.47C66.0361 174.84 65.7811 175.155 65.4411 175.415C65.1011 175.665 64.6861 175.855 64.1961 175.985C63.7161 176.115 63.1711 176.18 62.5611 176.18ZM60.8211 171.17H63.9711C63.9711 170.91 63.9361 170.685 63.8661 170.495C63.8061 170.295 63.7111 170.13 63.5811 170C63.4611 169.87 63.3111 169.775 63.1311 169.715C62.9611 169.645 62.7611 169.61 62.5311 169.61C62.1711 169.61 61.8711 169.67 61.6311 169.79C61.3911 169.91 61.2061 170.085 61.0761 170.315C60.9461 170.545 60.8611 170.83 60.8211 171.17ZM71.3682 176.18C70.8482 176.18 70.3582 176.125 69.8982 176.015C69.4482 175.905 69.0482 175.745 68.6982 175.535C68.3582 175.325 68.0882 175.065 67.8882 174.755C67.6982 174.445 67.6032 174.085 67.6032 173.675C67.6032 173.635 67.6032 173.6 67.6032 173.57C67.6032 173.53 67.6082 173.495 67.6182 173.465H69.9432C69.9432 173.485 69.9432 173.51 69.9432 173.54C69.9432 173.56 69.9432 173.58 69.9432 173.6C69.9532 173.82 70.0232 174.005 70.1532 174.155C70.2932 174.295 70.4732 174.4 70.6932 174.47C70.9132 174.53 71.1532 174.56 71.4132 174.56C71.6032 174.56 71.8032 174.54 72.0132 174.5C72.2332 174.46 72.4182 174.39 72.5682 174.29C72.7182 174.19 72.7932 174.045 72.7932 173.855C72.7932 173.645 72.6982 173.485 72.5082 173.375C72.3282 173.265 72.0832 173.175 71.7732 173.105C71.4732 173.025 71.1482 172.95 70.7982 172.88C70.4482 172.8 70.0932 172.71 69.7332 172.61C69.3832 172.51 69.0582 172.375 68.7582 172.205C68.4682 172.025 68.2332 171.795 68.0532 171.515C67.8732 171.235 67.7832 170.88 67.7832 170.45C67.7832 169.99 67.8782 169.6 68.0682 169.28C68.2682 168.95 68.5382 168.685 68.8782 168.485C69.2182 168.285 69.6082 168.14 70.0482 168.05C70.4982 167.96 70.9732 167.915 71.4732 167.915C71.9332 167.915 72.3682 167.96 72.7782 168.05C73.1982 168.14 73.5732 168.28 73.9032 168.47C74.2432 168.65 74.5082 168.885 74.6982 169.175C74.8882 169.455 74.9832 169.785 74.9832 170.165C74.9832 170.215 74.9782 170.27 74.9682 170.33C74.9682 170.38 74.9682 170.415 74.9682 170.435H72.6582V170.315C72.6582 170.145 72.6032 170.005 72.4932 169.895C72.3832 169.785 72.2332 169.7 72.0432 169.64C71.8532 169.57 71.6432 169.535 71.4132 169.535C71.2632 169.535 71.1132 169.55 70.9632 169.58C70.8232 169.6 70.6932 169.635 70.5732 169.685C70.4532 169.725 70.3532 169.785 70.2732 169.865C70.2032 169.945 70.1682 170.045 70.1682 170.165C70.1682 170.315 70.2332 170.44 70.3632 170.54C70.4932 170.63 70.6682 170.705 70.8882 170.765C71.1182 170.825 71.3682 170.89 71.6382 170.96C72.0082 171.04 72.3982 171.125 72.8082 171.215C73.2182 171.295 73.6032 171.415 73.9632 171.575C74.3332 171.725 74.6282 171.955 74.8482 172.265C75.0782 172.565 75.1932 172.98 75.1932 173.51C75.1932 174.01 75.0932 174.435 74.8932 174.785C74.6932 175.125 74.4182 175.4 74.0682 175.61C73.7182 175.81 73.3132 175.955 72.8532 176.045C72.3932 176.135 71.8982 176.18 71.3682 176.18ZM76.6647 167.03V165.14H79.1247V167.03H76.6647ZM76.6647 176V168.095H79.1247V176H76.6647ZM82.261 178.955C81.911 178.955 81.581 178.875 81.271 178.715C80.961 178.565 80.711 178.345 80.521 178.055C80.341 177.775 80.251 177.445 80.251 177.065C80.251 176.645 80.376 176.29 80.626 176C80.886 175.72 81.176 175.51 81.496 175.37C81.266 175.22 81.076 175.035 80.926 174.815C80.786 174.585 80.716 174.33 80.716 174.05C80.716 173.66 80.861 173.33 81.151 173.06C81.441 172.79 81.781 172.61 82.171 172.52C81.811 172.29 81.516 172.005 81.286 171.665C81.066 171.325 80.956 170.945 80.956 170.525C80.956 169.915 81.116 169.42 81.436 169.04C81.766 168.66 82.216 168.38 82.786 168.2C83.356 168.01 84.006 167.915 84.736 167.915C85.026 167.915 85.286 167.93 85.516 167.96C85.756 167.98 85.971 168.015 86.161 168.065C86.561 167.825 86.836 167.575 86.986 167.315C87.136 167.055 87.216 166.845 87.226 166.685H89.371C89.371 167.085 89.301 167.425 89.161 167.705C89.021 167.975 88.821 168.195 88.561 168.365C88.301 168.535 87.991 168.665 87.631 168.755C87.901 168.975 88.111 169.24 88.261 169.55C88.411 169.85 88.486 170.175 88.486 170.525C88.486 171.095 88.341 171.575 88.051 171.965C87.771 172.345 87.381 172.635 86.881 172.835C86.381 173.035 85.806 173.135 85.156 173.135H83.986C83.706 173.135 83.496 173.18 83.356 173.27C83.226 173.35 83.161 173.46 83.161 173.6C83.161 173.73 83.221 173.845 83.341 173.945C83.461 174.035 83.666 174.08 83.956 174.08H87.001C87.771 174.08 88.361 174.3 88.771 174.74C89.181 175.17 89.386 175.72 89.386 176.39C89.386 176.9 89.246 177.345 88.966 177.725C88.686 178.115 88.311 178.415 87.841 178.625C87.381 178.845 86.866 178.955 86.296 178.955H82.261ZM83.446 177.455H86.041C86.211 177.455 86.361 177.42 86.491 177.35C86.621 177.29 86.721 177.2 86.791 177.08C86.871 176.97 86.911 176.84 86.911 176.69C86.911 176.44 86.831 176.25 86.671 176.12C86.511 175.99 86.316 175.925 86.086 175.925H83.446C83.216 175.925 83.021 175.99 82.861 176.12C82.711 176.26 82.636 176.445 82.636 176.675C82.636 176.905 82.711 177.09 82.861 177.23C83.021 177.38 83.216 177.455 83.446 177.455ZM84.721 171.695C85.151 171.695 85.481 171.595 85.711 171.395C85.951 171.195 86.071 170.905 86.071 170.525C86.071 170.135 85.951 169.845 85.711 169.655C85.481 169.455 85.151 169.355 84.721 169.355C84.311 169.355 83.986 169.455 83.746 169.655C83.506 169.845 83.386 170.135 83.386 170.525C83.386 170.775 83.436 170.99 83.536 171.17C83.636 171.34 83.786 171.47 83.986 171.56C84.186 171.65 84.431 171.695 84.721 171.695ZM90.4636 176V168.095H92.4886L92.6686 169.22H92.7736C92.9736 168.95 93.2036 168.715 93.4636 168.515C93.7236 168.315 94.0186 168.165 94.3486 168.065C94.6786 167.965 95.0286 167.915 95.3986 167.915C95.9686 167.915 96.4486 168.02 96.8386 168.23C97.2386 168.44 97.5436 168.755 97.7536 169.175C97.9636 169.595 98.0686 170.13 98.0686 170.78V176H95.6086V171.125C95.6086 170.905 95.5786 170.72 95.5186 170.57C95.4686 170.41 95.3936 170.275 95.2936 170.165C95.1936 170.055 95.0686 169.975 94.9186 169.925C94.7686 169.875 94.5986 169.85 94.4086 169.85C94.1186 169.85 93.8636 169.92 93.6436 170.06C93.4236 170.19 93.2486 170.37 93.1186 170.6C92.9886 170.82 92.9236 171.08 92.9236 171.38V176H90.4636Z" fill="#115B75"/>
<defs>
<filter id="filter0_ddi_17_38" x="0.437866" y="0" width="150.438" height="155.438" filterUnits="userSpaceOnUse" color-interpolation-filters="sRGB">
<feFlood flood-opacity="0" result="BackgroundImageFix"/>
<feColorMatrix in="SourceAlpha" type="matrix" values="0 0 0 0 0 0 0 0 0 0 0 0 0 0 0 0 0 0 127 0" result="hardAlpha"/>
<feOffset dx="-1" dy="-2"/>
<feGaussianBlur stdDeviation="2"/>
<feComposite in2="hardAlpha" operator="out"/>
<feColorMatrix type="matrix" values="0 0 0 0 0 0 0 0 0 0 0 0 0 0 0 0 0 0 0.25 0"/>
<feBlend mode="normal" in2="BackgroundImageFix" result="effect1_dropShadow_17_38"/>
<feColorMatrix in="SourceAlpha" type="matrix" values="0 0 0 0 0 0 0 0 0 0 0 0 0 0 0 0 0 0 127 0" result="hardAlpha"/>
<feOffset dy="4"/>
<feGaussianBlur stdDeviation="2"/>
<feComposite in2="hardAlpha" operator="out"/>
<feColorMatrix type="matrix" values="0 0 0 0 0 0 0 0 0 0 0 0 0 0 0 0 0 0 0.25 0"/>
<feBlend mode="normal" in2="effect1_dropShadow_17_38" result="effect2_dropShadow_17_38"/>
<feBlend mode="normal" in="SourceGraphic" in2="effect2_dropShadow_17_38" result="shape"/>
<feColorMatrix in="SourceAlpha" type="matrix" values="0 0 0 0 0 0 0 0 0 0 0 0 0 0 0 0 0 0 127 0" result="hardAlpha"/>
<feOffset dy="4"/>
<feGaussianBlur stdDeviation="2"/>
<feComposite in2="hardAlpha" operator="arithmetic" k2="-1" k3="1"/>
<feColorMatrix type="matrix" values="0 0 0 0 1 0 0 0 0 1 0 0 0 0 1 0 0 0 0.5 0"/>
<feBlend mode="normal" in2="shape" result="effect3_innerShadow_17_38"/>
</filter>
<filter id="filter1_i_17_38" x="12.173" y="11.773" width="127.968" height="132.93" filterUnits="userSpaceOnUse" color-interpolation-filters="sRGB">
<feFlood flood-opacity="0" result="BackgroundImageFix"/>
<feBlend mode="normal" in="SourceGraphic" in2="BackgroundImageFix" result="shape"/>
<feColorMatrix in="SourceAlpha" type="matrix" values="0 0 0 0 0 0 0 0 0 0 0 0 0 0 0 0 0 0 127 0" result="hardAlpha"/>
<feOffset dy="4"/>
<feGaussianBlur stdDeviation="2"/>
<feComposite in2="hardAlpha" operator="arithmetic" k2="-1" k3="1"/>
<feColorMatrix type="matrix" values="0 0 0 0 0 0 0 0 0 0 0 0 0 0 0 0 0 0 0.25 0"/>
<feBlend mode="normal" in2="shape" result="effect1_innerShadow_17_38"/>
</filter>
<linearGradient id="paint0_linear_17_38" x1="75.9493" y1="40.2747" x2="75.9493" y2="114.694" gradientUnits="userSpaceOnUse">
<stop stop-color="#E7129E"/>
<stop offset="1" stop-color="#290011"/>
</linearGradient>
</defs>
</svg>
