<svg width="151" height="185" viewBox="0 0 151 185" fill="none" xmlns="http://www.w3.org/2000/svg">
<g filter="url(#filter0_ddi_17_21)">
<circle cx="75.7189" cy="76.7189" r="70.7189" fill="#1490BC"/>
</g>
<g filter="url(#filter1_i_17_21)">
<ellipse cx="75.7189" cy="76.2378" rx="63.9838" ry="64.4649" fill="#0D5670"/>
</g>
<path d="M76.6811 49.2973C64.8645 49.2973 54.8671 57.0397 51.4694 67.7137C56.5208 65.1579 62.2186 63.7297 68.2622 63.7297H81.4919C82.8149 63.7297 83.8973 64.8122 83.8973 66.1351C83.8973 67.4581 82.8149 68.5406 81.4919 68.5406H79.0865H68.2622C65.7666 68.5406 63.3461 68.8262 61.0159 69.3524C57.1221 70.2394 53.499 71.8179 50.2818 73.9677C41.5471 79.7858 35.7892 89.7232 35.7892 101.014V103.419C35.7892 105.418 37.3978 107.027 39.3973 107.027C41.3968 107.027 43.0054 105.418 43.0054 103.419V101.014C43.0054 93.6921 46.1174 87.1073 51.0936 82.4919C54.0703 93.8424 64.3985 102.216 76.6811 102.216H76.8314C96.691 102.111 112.762 82.537 112.762 58.4078C112.762 52.0034 111.635 45.9147 109.59 40.4274C109.199 39.39 107.681 39.4351 107.155 40.4123C104.328 45.7042 98.7356 49.2973 92.3162 49.2973H76.6811Z" fill="url(#paint0_linear_17_21)"/>
<rect x="26.1676" y="158.022" width="99.1027" height="25.9784" rx="10" fill="white"/>
<path d="M47.125 176V165.695H52.795C53.495 165.695 54.09 165.84 54.58 166.13C55.08 166.41 55.46 166.805 55.72 167.315C55.99 167.815 56.125 168.405 56.125 169.085C56.125 169.785 55.985 170.39 55.705 170.9C55.435 171.41 55.045 171.81 54.535 172.1C54.035 172.38 53.435 172.52 52.735 172.52H49.81V176H47.125ZM49.81 170.45H52.105C52.525 170.45 52.845 170.335 53.065 170.105C53.285 169.865 53.395 169.535 53.395 169.115C53.395 168.815 53.345 168.57 53.245 168.38C53.155 168.19 53.015 168.045 52.825 167.945C52.635 167.835 52.395 167.78 52.105 167.78H49.81V170.45ZM59.3743 176.18C59.0443 176.18 58.7193 176.145 58.3993 176.075C58.0893 176.015 57.8043 175.905 57.5443 175.745C57.2943 175.575 57.0943 175.345 56.9443 175.055C56.7943 174.765 56.7193 174.4 56.7193 173.96C56.7193 173.39 56.8393 172.925 57.0793 172.565C57.3193 172.205 57.6643 171.925 58.1143 171.725C58.5743 171.515 59.1243 171.37 59.7643 171.29C60.4143 171.21 61.1393 171.17 61.9393 171.17V170.675C61.9393 170.445 61.8943 170.255 61.8043 170.105C61.7143 169.945 61.5793 169.825 61.3993 169.745C61.2293 169.655 60.9993 169.61 60.7093 169.61C60.4493 169.61 60.2193 169.64 60.0193 169.7C59.8293 169.76 59.6843 169.85 59.5843 169.97C59.4843 170.08 59.4343 170.215 59.4343 170.375V170.51H57.0343C57.0243 170.46 57.0193 170.42 57.0193 170.39C57.0193 170.35 57.0193 170.3 57.0193 170.24C57.0193 169.77 57.1643 169.36 57.4543 169.01C57.7543 168.66 58.1793 168.39 58.7293 168.2C59.2793 168.01 59.9443 167.915 60.7243 167.915C61.4543 167.915 62.0893 168.005 62.6293 168.185C63.1793 168.365 63.6093 168.64 63.9193 169.01C64.2393 169.38 64.3993 169.865 64.3993 170.465V173.84C64.3993 174.01 64.4443 174.145 64.5343 174.245C64.6343 174.345 64.7543 174.395 64.8943 174.395H65.4043V175.91C65.2943 175.96 65.1193 176.015 64.8793 176.075C64.6493 176.145 64.3693 176.18 64.0393 176.18C63.6993 176.18 63.3993 176.135 63.1393 176.045C62.8893 175.965 62.6793 175.85 62.5093 175.7C62.3493 175.54 62.2393 175.355 62.1793 175.145H62.0743C61.8843 175.345 61.6593 175.525 61.3993 175.685C61.1493 175.845 60.8543 175.965 60.5143 176.045C60.1843 176.135 59.8043 176.18 59.3743 176.18ZM60.2893 174.485C60.5293 174.485 60.7493 174.45 60.9493 174.38C61.1493 174.31 61.3193 174.215 61.4593 174.095C61.6093 173.965 61.7243 173.81 61.8043 173.63C61.8943 173.45 61.9393 173.255 61.9393 173.045V172.52C61.3693 172.52 60.8793 172.56 60.4693 172.64C60.0593 172.72 59.7443 172.845 59.5243 173.015C59.3043 173.185 59.1943 173.4 59.1943 173.66C59.1943 173.85 59.2393 174.01 59.3293 174.14C59.4293 174.26 59.5593 174.35 59.7193 174.41C59.8793 174.46 60.0693 174.485 60.2893 174.485ZM71.5724 178.79V175.19H71.4824C71.3024 175.4 71.1024 175.58 70.8824 175.73C70.6624 175.88 70.4124 175.99 70.1324 176.06C69.8524 176.14 69.5574 176.18 69.2474 176.18C68.5974 176.18 68.0324 176.03 67.5524 175.73C67.0724 175.43 66.6974 174.975 66.4274 174.365C66.1674 173.755 66.0374 172.985 66.0374 172.055C66.0374 171.115 66.1674 170.34 66.4274 169.73C66.6874 169.12 67.0624 168.665 67.5524 168.365C68.0424 168.065 68.6224 167.915 69.2924 167.915C69.8024 167.915 70.2674 168.025 70.6874 168.245C71.1174 168.455 71.4574 168.77 71.7074 169.19H71.8124L72.0224 168.095H74.0324V178.79H71.5724ZM70.0574 174.26C70.3274 174.26 70.5574 174.21 70.7474 174.11C70.9474 174.01 71.1074 173.87 71.2274 173.69C71.3474 173.51 71.4374 173.295 71.4974 173.045C71.5574 172.795 71.5874 172.52 71.5874 172.22V171.86C71.5874 171.45 71.5324 171.095 71.4224 170.795C71.3224 170.485 71.1574 170.25 70.9274 170.09C70.7074 169.92 70.4174 169.835 70.0574 169.835C69.6874 169.835 69.3874 169.91 69.1574 170.06C68.9374 170.2 68.7774 170.42 68.6774 170.72C68.5774 171.01 68.5274 171.365 68.5274 171.785V172.31C68.5274 172.73 68.5774 173.085 68.6774 173.375C68.7774 173.665 68.9374 173.885 69.1574 174.035C69.3874 174.185 69.6874 174.26 70.0574 174.26ZM75.9046 176V168.095H77.9296L78.1096 169.22H78.2146C78.4146 168.95 78.6446 168.715 78.9046 168.515C79.1646 168.315 79.4596 168.165 79.7896 168.065C80.1196 167.965 80.4696 167.915 80.8396 167.915C81.4096 167.915 81.8896 168.02 82.2796 168.23C82.6796 168.44 82.9846 168.755 83.1946 169.175C83.4046 169.595 83.5096 170.13 83.5096 170.78V176H81.0496V171.125C81.0496 170.905 81.0196 170.72 80.9596 170.57C80.9096 170.41 80.8346 170.275 80.7346 170.165C80.6346 170.055 80.5096 169.975 80.3596 169.925C80.2096 169.875 80.0396 169.85 79.8496 169.85C79.5596 169.85 79.3046 169.92 79.0846 170.06C78.8646 170.19 78.6896 170.37 78.5596 170.6C78.4296 170.82 78.3646 171.08 78.3646 171.38V176H75.9046ZM85.3382 167.03V165.14H87.7982V167.03H85.3382ZM85.3382 176V168.095H87.7982V176H85.3382ZM93.3945 176.18C92.5245 176.18 91.7845 176.03 91.1745 175.73C90.5645 175.43 90.0945 174.975 89.7645 174.365C89.4445 173.745 89.2845 172.97 89.2845 172.04C89.2845 171.11 89.4495 170.34 89.7795 169.73C90.1095 169.11 90.5795 168.65 91.1895 168.35C91.7995 168.05 92.5345 167.9 93.3945 167.9C93.9545 167.9 94.4695 167.965 94.9395 168.095C95.4195 168.225 95.8345 168.425 96.1845 168.695C96.5445 168.965 96.8195 169.305 97.0095 169.715C97.1995 170.125 97.2945 170.615 97.2945 171.185H94.8795C94.8795 170.845 94.8195 170.565 94.6995 170.345C94.5895 170.125 94.4245 169.96 94.2045 169.85C93.9845 169.74 93.7095 169.685 93.3795 169.685C92.9995 169.685 92.6895 169.765 92.4495 169.925C92.2195 170.085 92.0495 170.32 91.9395 170.63C91.8295 170.94 91.7745 171.325 91.7745 171.785V172.325C91.7745 172.775 91.8295 173.155 91.9395 173.465C92.0495 173.775 92.2295 174.01 92.4795 174.17C92.7295 174.32 93.0495 174.395 93.4395 174.395C93.7795 174.395 94.0595 174.345 94.2795 174.245C94.5095 174.135 94.6845 173.97 94.8045 173.75C94.9245 173.52 94.9845 173.235 94.9845 172.895H97.2945C97.2945 173.445 97.1995 173.93 97.0095 174.35C96.8195 174.76 96.5495 175.1 96.1995 175.37C95.8495 175.64 95.4345 175.845 94.9545 175.985C94.4745 176.115 93.9545 176.18 93.3945 176.18Z" fill="#115B75"/>
<defs>
<filter id="filter0_ddi_17_21" x="0" y="0" width="150.438" height="155.438" filterUnits="userSpaceOnUse" color-interpolation-filters="sRGB">
<feFlood flood-opacity="0" result="BackgroundImageFix"/>
<feColorMatrix in="SourceAlpha" type="matrix" values="0 0 0 0 0 0 0 0 0 0 0 0 0 0 0 0 0 0 127 0" result="hardAlpha"/>
<feOffset dx="-1" dy="-2"/>
<feGaussianBlur stdDeviation="2"/>
<feComposite in2="hardAlpha" operator="out"/>
<feColorMatrix type="matrix" values="0 0 0 0 0 0 0 0 0 0 0 0 0 0 0 0 0 0 0.25 0"/>
<feBlend mode="normal" in2="BackgroundImageFix" result="effect1_dropShadow_17_21"/>
<feColorMatrix in="SourceAlpha" type="matrix" values="0 0 0 0 0 0 0 0 0 0 0 0 0 0 0 0 0 0 127 0" result="hardAlpha"/>
<feOffset dy="4"/>
<feGaussianBlur stdDeviation="2"/>
<feComposite in2="hardAlpha" operator="out"/>
<feColorMatrix type="matrix" values="0 0 0 0 0 0 0 0 0 0 0 0 0 0 0 0 0 0 0.25 0"/>
<feBlend mode="normal" in2="effect1_dropShadow_17_21" result="effect2_dropShadow_17_21"/>
<feBlend mode="normal" in="SourceGraphic" in2="effect2_dropShadow_17_21" result="shape"/>
<feColorMatrix in="SourceAlpha" type="matrix" values="0 0 0 0 0 0 0 0 0 0 0 0 0 0 0 0 0 0 127 0" result="hardAlpha"/>
<feOffset dy="4"/>
<feGaussianBlur stdDeviation="2"/>
<feComposite in2="hardAlpha" operator="arithmetic" k2="-1" k3="1"/>
<feColorMatrix type="matrix" values="0 0 0 0 1 0 0 0 0 1 0 0 0 0 1 0 0 0 0.5 0"/>
<feBlend mode="normal" in2="shape" result="effect3_innerShadow_17_21"/>
</filter>
<filter id="filter1_i_17_21" x="11.7351" y="11.773" width="127.968" height="132.93" filterUnits="userSpaceOnUse" color-interpolation-filters="sRGB">
<feFlood flood-opacity="0" result="BackgroundImageFix"/>
<feBlend mode="normal" in="SourceGraphic" in2="BackgroundImageFix" result="shape"/>
<feColorMatrix in="SourceAlpha" type="matrix" values="0 0 0 0 0 0 0 0 0 0 0 0 0 0 0 0 0 0 127 0" result="hardAlpha"/>
<feOffset dy="4"/>
<feGaussianBlur stdDeviation="2"/>
<feComposite in2="hardAlpha" operator="arithmetic" k2="-1" k3="1"/>
<feColorMatrix type="matrix" values="0 0 0 0 0 0 0 0 0 0 0 0 0 0 0 0 0 0 0.25 0"/>
<feBlend mode="normal" in2="shape" result="effect1_innerShadow_17_21"/>
</filter>
<linearGradient id="paint0_linear_17_21" x1="74.2757" y1="39.6644" x2="74.2757" y2="107.027" gradientUnits="userSpaceOnUse">
<stop stop-color="#31F250"/>
<stop offset="1" stop-color="#0A6B1A"/>
</linearGradient>
</defs>
</svg>
