<svg width="152" height="184" viewBox="0 0 152 184" fill="none" xmlns="http://www.w3.org/2000/svg">
<g filter="url(#filter0_ddi_17_54)">
<circle cx="76.5947" cy="76.7189" r="70.7189" fill="#1490BC"/>
</g>
<g filter="url(#filter1_i_17_54)">
<ellipse cx="76.5946" cy="76.2378" rx="63.9838" ry="64.4649" fill="#0D5670"/>
</g>
<path d="M86.7278 41.1788C84.3104 40.4803 81.7935 41.8915 81.0967 44.3148L62.8953 108.176C62.1985 110.6 63.6063 113.123 66.0237 113.821C68.4411 114.52 70.958 113.108 71.6547 110.685L89.8562 46.8237C90.5529 44.4004 89.1452 41.8773 86.7278 41.1788ZM98.189 58.2988C96.4115 60.0806 96.4115 62.9744 98.189 64.7562L110.887 77.5L98.1748 90.2438C96.3973 92.0256 96.3973 94.9194 98.1748 96.7012C99.9523 98.4831 102.839 98.4831 104.616 96.7012L120.543 80.7358C122.32 78.954 122.32 76.0603 120.543 74.2784L104.616 58.313C102.839 56.5312 99.9523 56.5312 98.1748 58.313L98.189 58.2988ZM54.5767 58.2988C52.7992 56.5169 49.9126 56.5169 48.1351 58.2988L32.2088 74.2642C30.4314 76.046 30.4314 78.9397 32.2088 80.7216L48.1351 96.687C49.9126 98.4688 52.7992 98.4688 54.5767 96.687C56.3542 94.9051 56.3542 92.0114 54.5767 90.2295L41.8641 77.5L54.5767 64.7562C56.3542 62.9744 56.3542 60.0806 54.5767 58.2988Z" fill="url(#paint0_linear_17_54)"/>
<rect x="19.8757" y="158" width="114" height="26" rx="10" fill="white"/>
<path d="M26.0007 176V165.695H31.6707C32.3707 165.695 32.9657 165.84 33.4557 166.13C33.9557 166.41 34.3357 166.805 34.5957 167.315C34.8657 167.815 35.0007 168.405 35.0007 169.085C35.0007 169.785 34.8607 170.39 34.5807 170.9C34.3107 171.41 33.9207 171.81 33.4107 172.1C32.9107 172.38 32.3107 172.52 31.6107 172.52H28.6857V176H26.0007ZM28.6857 170.45H30.9807C31.4007 170.45 31.7207 170.335 31.9407 170.105C32.1607 169.865 32.2707 169.535 32.2707 169.115C32.2707 168.815 32.2207 168.57 32.1207 168.38C32.0307 168.19 31.8907 168.045 31.7007 167.945C31.5107 167.835 31.2707 167.78 30.9807 167.78H28.6857V170.45ZM36.2794 176V168.095H38.3044L38.4844 169.31H38.5894C38.7094 169.04 38.8544 168.8 39.0244 168.59C39.2044 168.37 39.4194 168.2 39.6694 168.08C39.9294 167.96 40.2144 167.9 40.5244 167.9C40.7044 167.9 40.8694 167.92 41.0194 167.96C41.1694 167.99 41.2794 168.025 41.3494 168.065V170.21H40.5694C40.2594 170.21 39.9844 170.255 39.7444 170.345C39.5144 170.425 39.3244 170.555 39.1744 170.735C39.0244 170.905 38.9144 171.115 38.8444 171.365C38.7744 171.615 38.7394 171.905 38.7394 172.235V176H36.2794ZM46.0663 176.18C45.1863 176.18 44.4313 176.03 43.8013 175.73C43.1813 175.43 42.7013 174.975 42.3613 174.365C42.0313 173.745 41.8663 172.97 41.8663 172.04C41.8663 171.11 42.0313 170.34 42.3613 169.73C42.7013 169.12 43.1813 168.665 43.8013 168.365C44.4313 168.065 45.1863 167.915 46.0663 167.915C46.9563 167.915 47.7113 168.065 48.3313 168.365C48.9613 168.665 49.4413 169.12 49.7713 169.73C50.1113 170.34 50.2813 171.11 50.2813 172.04C50.2813 172.97 50.1113 173.745 49.7713 174.365C49.4413 174.975 48.9613 175.43 48.3313 175.73C47.7113 176.03 46.9563 176.18 46.0663 176.18ZM46.0663 174.395C46.4763 174.395 46.8063 174.315 47.0563 174.155C47.3163 173.995 47.5013 173.765 47.6113 173.465C47.7313 173.155 47.7913 172.775 47.7913 172.325V171.77C47.7913 171.32 47.7313 170.94 47.6113 170.63C47.5013 170.32 47.3163 170.09 47.0563 169.94C46.8063 169.78 46.4763 169.7 46.0663 169.7C45.6663 169.7 45.3363 169.78 45.0763 169.94C44.8263 170.09 44.6413 170.32 44.5213 170.63C44.4113 170.94 44.3563 171.32 44.3563 171.77V172.325C44.3563 172.775 44.4113 173.155 44.5213 173.465C44.6413 173.765 44.8263 173.995 45.0763 174.155C45.3363 174.315 45.6663 174.395 46.0663 174.395ZM53.0378 178.955C52.6878 178.955 52.3578 178.875 52.0478 178.715C51.7378 178.565 51.4878 178.345 51.2978 178.055C51.1178 177.775 51.0278 177.445 51.0278 177.065C51.0278 176.645 51.1528 176.29 51.4028 176C51.6628 175.72 51.9528 175.51 52.2728 175.37C52.0428 175.22 51.8528 175.035 51.7028 174.815C51.5628 174.585 51.4928 174.33 51.4928 174.05C51.4928 173.66 51.6378 173.33 51.9278 173.06C52.2178 172.79 52.5578 172.61 52.9478 172.52C52.5878 172.29 52.2928 172.005 52.0628 171.665C51.8428 171.325 51.7328 170.945 51.7328 170.525C51.7328 169.915 51.8928 169.42 52.2128 169.04C52.5428 168.66 52.9928 168.38 53.5628 168.2C54.1328 168.01 54.7828 167.915 55.5128 167.915C55.8028 167.915 56.0628 167.93 56.2928 167.96C56.5328 167.98 56.7478 168.015 56.9378 168.065C57.3378 167.825 57.6128 167.575 57.7628 167.315C57.9128 167.055 57.9928 166.845 58.0028 166.685H60.1478C60.1478 167.085 60.0778 167.425 59.9378 167.705C59.7978 167.975 59.5978 168.195 59.3378 168.365C59.0778 168.535 58.7678 168.665 58.4078 168.755C58.6778 168.975 58.8878 169.24 59.0378 169.55C59.1878 169.85 59.2628 170.175 59.2628 170.525C59.2628 171.095 59.1178 171.575 58.8278 171.965C58.5478 172.345 58.1578 172.635 57.6578 172.835C57.1578 173.035 56.5828 173.135 55.9328 173.135H54.7628C54.4828 173.135 54.2728 173.18 54.1328 173.27C54.0028 173.35 53.9378 173.46 53.9378 173.6C53.9378 173.73 53.9978 173.845 54.1178 173.945C54.2378 174.035 54.4428 174.08 54.7328 174.08H57.7778C58.5478 174.08 59.1378 174.3 59.5478 174.74C59.9578 175.17 60.1628 175.72 60.1628 176.39C60.1628 176.9 60.0228 177.345 59.7428 177.725C59.4628 178.115 59.0878 178.415 58.6178 178.625C58.1578 178.845 57.6428 178.955 57.0728 178.955H53.0378ZM54.2228 177.455H56.8178C56.9878 177.455 57.1378 177.42 57.2678 177.35C57.3978 177.29 57.4978 177.2 57.5678 177.08C57.6478 176.97 57.6878 176.84 57.6878 176.69C57.6878 176.44 57.6078 176.25 57.4478 176.12C57.2878 175.99 57.0928 175.925 56.8628 175.925H54.2228C53.9928 175.925 53.7978 175.99 53.6378 176.12C53.4878 176.26 53.4128 176.445 53.4128 176.675C53.4128 176.905 53.4878 177.09 53.6378 177.23C53.7978 177.38 53.9928 177.455 54.2228 177.455ZM55.4978 171.695C55.9278 171.695 56.2578 171.595 56.4878 171.395C56.7278 171.195 56.8478 170.905 56.8478 170.525C56.8478 170.135 56.7278 169.845 56.4878 169.655C56.2578 169.455 55.9278 169.355 55.4978 169.355C55.0878 169.355 54.7628 169.455 54.5228 169.655C54.2828 169.845 54.1628 170.135 54.1628 170.525C54.1628 170.775 54.2128 170.99 54.3128 171.17C54.4128 171.34 54.5628 171.47 54.7628 171.56C54.9628 171.65 55.2078 171.695 55.4978 171.695ZM61.2403 176V168.095H63.2653L63.4453 169.31H63.5503C63.6703 169.04 63.8153 168.8 63.9853 168.59C64.1653 168.37 64.3803 168.2 64.6303 168.08C64.8903 167.96 65.1753 167.9 65.4853 167.9C65.6653 167.9 65.8303 167.92 65.9803 167.96C66.1303 167.99 66.2403 168.025 66.3103 168.065V170.21H65.5303C65.2203 170.21 64.9453 170.255 64.7053 170.345C64.4753 170.425 64.2853 170.555 64.1353 170.735C63.9853 170.905 63.8753 171.115 63.8053 171.365C63.7353 171.615 63.7003 171.905 63.7003 172.235V176H61.2403ZM69.4072 176.18C69.0772 176.18 68.7522 176.145 68.4322 176.075C68.1222 176.015 67.8372 175.905 67.5772 175.745C67.3272 175.575 67.1272 175.345 66.9772 175.055C66.8272 174.765 66.7522 174.4 66.7522 173.96C66.7522 173.39 66.8722 172.925 67.1122 172.565C67.3522 172.205 67.6972 171.925 68.1472 171.725C68.6072 171.515 69.1572 171.37 69.7972 171.29C70.4472 171.21 71.1722 171.17 71.9722 171.17V170.675C71.9722 170.445 71.9272 170.255 71.8372 170.105C71.7472 169.945 71.6122 169.825 71.4322 169.745C71.2622 169.655 71.0322 169.61 70.7422 169.61C70.4822 169.61 70.2522 169.64 70.0522 169.7C69.8622 169.76 69.7172 169.85 69.6172 169.97C69.5172 170.08 69.4672 170.215 69.4672 170.375V170.51H67.0672C67.0572 170.46 67.0522 170.42 67.0522 170.39C67.0522 170.35 67.0522 170.3 67.0522 170.24C67.0522 169.77 67.1972 169.36 67.4872 169.01C67.7872 168.66 68.2122 168.39 68.7622 168.2C69.3122 168.01 69.9772 167.915 70.7572 167.915C71.4872 167.915 72.1222 168.005 72.6622 168.185C73.2122 168.365 73.6422 168.64 73.9522 169.01C74.2722 169.38 74.4322 169.865 74.4322 170.465V173.84C74.4322 174.01 74.4772 174.145 74.5672 174.245C74.6672 174.345 74.7872 174.395 74.9272 174.395H75.4372V175.91C75.3272 175.96 75.1522 176.015 74.9122 176.075C74.6822 176.145 74.4022 176.18 74.0722 176.18C73.7322 176.18 73.4322 176.135 73.1722 176.045C72.9222 175.965 72.7122 175.85 72.5422 175.7C72.3822 175.54 72.2722 175.355 72.2122 175.145H72.1072C71.9172 175.345 71.6922 175.525 71.4322 175.685C71.1822 175.845 70.8872 175.965 70.5472 176.045C70.2172 176.135 69.8372 176.18 69.4072 176.18ZM70.3222 174.485C70.5622 174.485 70.7822 174.45 70.9822 174.38C71.1822 174.31 71.3522 174.215 71.4922 174.095C71.6422 173.965 71.7572 173.81 71.8372 173.63C71.9272 173.45 71.9722 173.255 71.9722 173.045V172.52C71.4022 172.52 70.9122 172.56 70.5022 172.64C70.0922 172.72 69.7772 172.845 69.5572 173.015C69.3372 173.185 69.2272 173.4 69.2272 173.66C69.2272 173.85 69.2722 174.01 69.3622 174.14C69.4622 174.26 69.5922 174.35 69.7522 174.41C69.9122 174.46 70.1022 174.485 70.3222 174.485ZM76.4454 176V168.095H78.4704L78.6504 169.22H78.7554C78.9354 168.95 79.1504 168.715 79.4004 168.515C79.6604 168.315 79.9454 168.165 80.2554 168.065C80.5654 167.965 80.8954 167.915 81.2454 167.915C81.7854 167.915 82.2454 168.025 82.6254 168.245C83.0054 168.455 83.2954 168.78 83.4954 169.22H83.6004C83.7804 168.95 83.9954 168.715 84.2454 168.515C84.5054 168.315 84.7904 168.165 85.1004 168.065C85.4204 167.965 85.7504 167.915 86.0904 167.915C86.6404 167.915 87.1054 168.02 87.4854 168.23C87.8654 168.43 88.1554 168.74 88.3554 169.16C88.5654 169.57 88.6704 170.095 88.6704 170.735V176H86.2104V171.11C86.2104 170.89 86.1854 170.705 86.1354 170.555C86.0854 170.395 86.0154 170.265 85.9254 170.165C85.8354 170.055 85.7204 169.975 85.5804 169.925C85.4404 169.875 85.2904 169.85 85.1304 169.85C84.8704 169.85 84.6354 169.92 84.4254 170.06C84.2254 170.19 84.0704 170.37 83.9604 170.6C83.8504 170.82 83.7954 171.08 83.7954 171.38V176H81.3354V171.11C81.3354 170.89 81.3104 170.705 81.2604 170.555C81.2104 170.395 81.1404 170.265 81.0504 170.165C80.9604 170.055 80.8454 169.975 80.7054 169.925C80.5654 169.875 80.4154 169.85 80.2554 169.85C79.9954 169.85 79.7604 169.92 79.5504 170.06C79.3504 170.19 79.1904 170.37 79.0704 170.6C78.9604 170.82 78.9054 171.08 78.9054 171.38V176H76.4454ZM92.6982 176.18C92.3682 176.18 92.0432 176.145 91.7232 176.075C91.4132 176.015 91.1282 175.905 90.8682 175.745C90.6182 175.575 90.4182 175.345 90.2682 175.055C90.1182 174.765 90.0432 174.4 90.0432 173.96C90.0432 173.39 90.1632 172.925 90.4032 172.565C90.6432 172.205 90.9882 171.925 91.4382 171.725C91.8982 171.515 92.4482 171.37 93.0882 171.29C93.7382 171.21 94.4632 171.17 95.2632 171.17V170.675C95.2632 170.445 95.2182 170.255 95.1282 170.105C95.0382 169.945 94.9032 169.825 94.7232 169.745C94.5532 169.655 94.3232 169.61 94.0332 169.61C93.7732 169.61 93.5432 169.64 93.3432 169.7C93.1532 169.76 93.0082 169.85 92.9082 169.97C92.8082 170.08 92.7582 170.215 92.7582 170.375V170.51H90.3582C90.3482 170.46 90.3432 170.42 90.3432 170.39C90.3432 170.35 90.3432 170.3 90.3432 170.24C90.3432 169.77 90.4882 169.36 90.7782 169.01C91.0782 168.66 91.5032 168.39 92.0532 168.2C92.6032 168.01 93.2682 167.915 94.0482 167.915C94.7782 167.915 95.4132 168.005 95.9532 168.185C96.5032 168.365 96.9332 168.64 97.2432 169.01C97.5632 169.38 97.7232 169.865 97.7232 170.465V173.84C97.7232 174.01 97.7682 174.145 97.8582 174.245C97.9582 174.345 98.0782 174.395 98.2182 174.395H98.7282V175.91C98.6182 175.96 98.4432 176.015 98.2032 176.075C97.9732 176.145 97.6932 176.18 97.3632 176.18C97.0232 176.18 96.7232 176.135 96.4632 176.045C96.2132 175.965 96.0032 175.85 95.8332 175.7C95.6732 175.54 95.5632 175.355 95.5032 175.145H95.3982C95.2082 175.345 94.9832 175.525 94.7232 175.685C94.4732 175.845 94.1782 175.965 93.8382 176.045C93.5082 176.135 93.1282 176.18 92.6982 176.18ZM93.6132 174.485C93.8532 174.485 94.0732 174.45 94.2732 174.38C94.4732 174.31 94.6432 174.215 94.7832 174.095C94.9332 173.965 95.0482 173.81 95.1282 173.63C95.2182 173.45 95.2632 173.255 95.2632 173.045V172.52C94.6932 172.52 94.2032 172.56 93.7932 172.64C93.3832 172.72 93.0682 172.845 92.8482 173.015C92.6282 173.185 92.5182 173.4 92.5182 173.66C92.5182 173.85 92.5632 174.01 92.6532 174.14C92.7532 174.26 92.8832 174.35 93.0432 174.41C93.2032 174.46 93.3932 174.485 93.6132 174.485ZM103.471 176.18C102.601 176.18 101.861 176.03 101.251 175.73C100.641 175.43 100.171 174.975 99.8414 174.365C99.5214 173.745 99.3614 172.97 99.3614 172.04C99.3614 171.11 99.5264 170.34 99.8564 169.73C100.186 169.11 100.656 168.65 101.266 168.35C101.876 168.05 102.611 167.9 103.471 167.9C104.031 167.9 104.546 167.965 105.016 168.095C105.496 168.225 105.911 168.425 106.261 168.695C106.621 168.965 106.896 169.305 107.086 169.715C107.276 170.125 107.371 170.615 107.371 171.185H104.956C104.956 170.845 104.896 170.565 104.776 170.345C104.666 170.125 104.501 169.96 104.281 169.85C104.061 169.74 103.786 169.685 103.456 169.685C103.076 169.685 102.766 169.765 102.526 169.925C102.296 170.085 102.126 170.32 102.016 170.63C101.906 170.94 101.851 171.325 101.851 171.785V172.325C101.851 172.775 101.906 173.155 102.016 173.465C102.126 173.775 102.306 174.01 102.556 174.17C102.806 174.32 103.126 174.395 103.516 174.395C103.856 174.395 104.136 174.345 104.356 174.245C104.586 174.135 104.761 173.97 104.881 173.75C105.001 173.52 105.061 173.235 105.061 172.895H107.371C107.371 173.445 107.276 173.93 107.086 174.35C106.896 174.76 106.626 175.1 106.276 175.37C105.926 175.64 105.511 175.845 105.031 175.985C104.551 176.115 104.031 176.18 103.471 176.18ZM103.426 178.97C103.126 178.97 102.811 178.95 102.481 178.91C102.151 178.88 101.876 178.835 101.656 178.775V177.98H103.141C103.331 177.98 103.481 177.96 103.591 177.92C103.701 177.88 103.756 177.785 103.756 177.635C103.756 177.505 103.716 177.41 103.636 177.35C103.556 177.3 103.401 177.275 103.171 177.275H102.541L102.796 175.61H104.116L103.981 176.465C104.201 176.485 104.411 176.535 104.611 176.615C104.821 176.705 104.991 176.83 105.121 176.99C105.251 177.16 105.316 177.38 105.316 177.65C105.316 177.92 105.251 178.14 105.121 178.31C105.001 178.49 104.841 178.625 104.641 178.715C104.451 178.805 104.246 178.87 104.026 178.91C103.816 178.95 103.616 178.97 103.426 178.97ZM111.126 176.18C110.796 176.18 110.471 176.145 110.151 176.075C109.841 176.015 109.556 175.905 109.296 175.745C109.046 175.575 108.846 175.345 108.696 175.055C108.546 174.765 108.471 174.4 108.471 173.96C108.471 173.39 108.591 172.925 108.831 172.565C109.071 172.205 109.416 171.925 109.866 171.725C110.326 171.515 110.876 171.37 111.516 171.29C112.166 171.21 112.891 171.17 113.691 171.17V170.675C113.691 170.445 113.646 170.255 113.556 170.105C113.466 169.945 113.331 169.825 113.151 169.745C112.981 169.655 112.751 169.61 112.461 169.61C112.201 169.61 111.971 169.64 111.771 169.7C111.581 169.76 111.436 169.85 111.336 169.97C111.236 170.08 111.186 170.215 111.186 170.375V170.51H108.786C108.776 170.46 108.771 170.42 108.771 170.39C108.771 170.35 108.771 170.3 108.771 170.24C108.771 169.77 108.916 169.36 109.206 169.01C109.506 168.66 109.931 168.39 110.481 168.2C111.031 168.01 111.696 167.915 112.476 167.915C113.206 167.915 113.841 168.005 114.381 168.185C114.931 168.365 115.361 168.64 115.671 169.01C115.991 169.38 116.151 169.865 116.151 170.465V173.84C116.151 174.01 116.196 174.145 116.286 174.245C116.386 174.345 116.506 174.395 116.646 174.395H117.156V175.91C117.046 175.96 116.871 176.015 116.631 176.075C116.401 176.145 116.121 176.18 115.791 176.18C115.451 176.18 115.151 176.135 114.891 176.045C114.641 175.965 114.431 175.85 114.261 175.7C114.101 175.54 113.991 175.355 113.931 175.145H113.826C113.636 175.345 113.411 175.525 113.151 175.685C112.901 175.845 112.606 175.965 112.266 176.045C111.936 176.135 111.556 176.18 111.126 176.18ZM112.041 174.485C112.281 174.485 112.501 174.45 112.701 174.38C112.901 174.31 113.071 174.215 113.211 174.095C113.361 173.965 113.476 173.81 113.556 173.63C113.646 173.45 113.691 173.255 113.691 173.045V172.52C113.121 172.52 112.631 172.56 112.221 172.64C111.811 172.72 111.496 172.845 111.276 173.015C111.056 173.185 110.946 173.4 110.946 173.66C110.946 173.85 110.991 174.01 111.081 174.14C111.181 174.26 111.311 174.35 111.471 174.41C111.631 174.46 111.821 174.485 112.041 174.485ZM109.521 167.12C109.521 166.78 109.586 166.46 109.716 166.16C109.856 165.86 110.061 165.62 110.331 165.44C110.601 165.25 110.926 165.155 111.306 165.155C111.596 165.155 111.871 165.205 112.131 165.305C112.401 165.395 112.656 165.49 112.896 165.59C113.146 165.68 113.401 165.725 113.661 165.725C113.821 165.725 113.956 165.675 114.066 165.575C114.176 165.475 114.251 165.335 114.291 165.155H115.416C115.416 165.495 115.346 165.815 115.206 166.115C115.066 166.405 114.861 166.645 114.591 166.835C114.331 167.025 114.011 167.12 113.631 167.12C113.341 167.12 113.061 167.075 112.791 166.985C112.531 166.885 112.276 166.79 112.026 166.7C111.786 166.6 111.536 166.55 111.276 166.55C111.116 166.55 110.981 166.6 110.871 166.7C110.761 166.8 110.686 166.94 110.646 167.12H109.521ZM121.989 176.18C121.109 176.18 120.354 176.03 119.724 175.73C119.104 175.43 118.624 174.975 118.284 174.365C117.954 173.745 117.789 172.97 117.789 172.04C117.789 171.11 117.954 170.34 118.284 169.73C118.624 169.12 119.104 168.665 119.724 168.365C120.354 168.065 121.109 167.915 121.989 167.915C122.879 167.915 123.634 168.065 124.254 168.365C124.884 168.665 125.364 169.12 125.694 169.73C126.034 170.34 126.204 171.11 126.204 172.04C126.204 172.97 126.034 173.745 125.694 174.365C125.364 174.975 124.884 175.43 124.254 175.73C123.634 176.03 122.879 176.18 121.989 176.18ZM121.989 174.395C122.399 174.395 122.729 174.315 122.979 174.155C123.239 173.995 123.424 173.765 123.534 173.465C123.654 173.155 123.714 172.775 123.714 172.325V171.77C123.714 171.32 123.654 170.94 123.534 170.63C123.424 170.32 123.239 170.09 122.979 169.94C122.729 169.78 122.399 169.7 121.989 169.7C121.589 169.7 121.259 169.78 120.999 169.94C120.749 170.09 120.564 170.32 120.444 170.63C120.334 170.94 120.279 171.32 120.279 171.77V172.325C120.279 172.775 120.334 173.155 120.444 173.465C120.564 173.765 120.749 173.995 120.999 174.155C121.259 174.315 121.589 174.395 121.989 174.395Z" fill="#115B75"/>
<defs>
<filter id="filter0_ddi_17_54" x="0.875732" y="0" width="150.438" height="155.438" filterUnits="userSpaceOnUse" color-interpolation-filters="sRGB">
<feFlood flood-opacity="0" result="BackgroundImageFix"/>
<feColorMatrix in="SourceAlpha" type="matrix" values="0 0 0 0 0 0 0 0 0 0 0 0 0 0 0 0 0 0 127 0" result="hardAlpha"/>
<feOffset dx="-1" dy="-2"/>
<feGaussianBlur stdDeviation="2"/>
<feComposite in2="hardAlpha" operator="out"/>
<feColorMatrix type="matrix" values="0 0 0 0 0 0 0 0 0 0 0 0 0 0 0 0 0 0 0.25 0"/>
<feBlend mode="normal" in2="BackgroundImageFix" result="effect1_dropShadow_17_54"/>
<feColorMatrix in="SourceAlpha" type="matrix" values="0 0 0 0 0 0 0 0 0 0 0 0 0 0 0 0 0 0 127 0" result="hardAlpha"/>
<feOffset dy="4"/>
<feGaussianBlur stdDeviation="2"/>
<feComposite in2="hardAlpha" operator="out"/>
<feColorMatrix type="matrix" values="0 0 0 0 0 0 0 0 0 0 0 0 0 0 0 0 0 0 0.25 0"/>
<feBlend mode="normal" in2="effect1_dropShadow_17_54" result="effect2_dropShadow_17_54"/>
<feBlend mode="normal" in="SourceGraphic" in2="effect2_dropShadow_17_54" result="shape"/>
<feColorMatrix in="SourceAlpha" type="matrix" values="0 0 0 0 0 0 0 0 0 0 0 0 0 0 0 0 0 0 127 0" result="hardAlpha"/>
<feOffset dy="4"/>
<feGaussianBlur stdDeviation="2"/>
<feComposite in2="hardAlpha" operator="arithmetic" k2="-1" k3="1"/>
<feColorMatrix type="matrix" values="0 0 0 0 1 0 0 0 0 1 0 0 0 0 1 0 0 0 0.5 0"/>
<feBlend mode="normal" in2="shape" result="effect3_innerShadow_17_54"/>
</filter>
<filter id="filter1_i_17_54" x="12.6108" y="11.773" width="127.968" height="132.93" filterUnits="userSpaceOnUse" color-interpolation-filters="sRGB">
<feFlood flood-opacity="0" result="BackgroundImageFix"/>
<feBlend mode="normal" in="SourceGraphic" in2="BackgroundImageFix" result="shape"/>
<feColorMatrix in="SourceAlpha" type="matrix" values="0 0 0 0 0 0 0 0 0 0 0 0 0 0 0 0 0 0 127 0" result="hardAlpha"/>
<feOffset dy="4"/>
<feGaussianBlur stdDeviation="2"/>
<feComposite in2="hardAlpha" operator="arithmetic" k2="-1" k3="1"/>
<feColorMatrix type="matrix" values="0 0 0 0 0 0 0 0 0 0 0 0 0 0 0 0 0 0 0.25 0"/>
<feBlend mode="normal" in2="shape" result="effect1_innerShadow_17_54"/>
</filter>
<linearGradient id="paint0_linear_17_54" x1="76.3757" y1="41" x2="76.3757" y2="114" gradientUnits="userSpaceOnUse">
<stop stop-color="#34A4CC"/>
<stop offset="1" stop-color="#74DBFF"/>
</linearGradient>
</defs>
</svg>
